# xmcd
#
# Track frame offsets: 
#        150
#        23469
#        43068
#        58531
#        73669
#        86234
#        98382
#        115180
#        135001
#        148937
#        171642
#        189068
#        210752
#        225209
#        237229
#        259584
#        276567
#        292625
#        314623
#        329307
#
# Disc length: 4669 seconds
#
# Revision: 0
# Processed by: cddbd v1.5.2PL0 Copyright (c) Steve Scherf et al.
# Submitted via: ExactAudioCopyFreeDBPlugin 1.0
#
DISCID=0d123b14
DTITLE=Steve Ellis - An Everlasting Soul The ANthology 2
DYEAR=2006
DGENRE=Pop
TTITLE0=El Doomo
TTITLE1=Your Game
TTITLE2=Good To Be Alive
TTITLE3=Morning Paper
TTITLE4=Open Road
TTITLE5=Leaving In The Morning
TTITLE6=Loud And Lazy Love Songs
TTITLE7=Goodbye Boredom
TTITLE8=On The Road
TTITLE9=Pin A Rose On Me
TTITLE10=When I Met You
TTITLE11=Rag And Bone
TTITLE12=Save All The Encores
TTITLE13=Soothe Me
TTITLE14=Wind A Lady
TTITLE15=Hot Lips
TTITLE16=Song Of A Baker
TTITLE17=Afterglow (Of Your Love)
TTITLE18=Indian Rope Man
TTITLE19=I'm ALive
EXTD=
EXTT0=
EXTT1=
EXTT2=
EXTT3=
EXTT4=
EXTT5=
EXTT6=
EXTT7=
EXTT8=
EXTT9=
EXTT10=
EXTT11=
EXTT12=
EXTT13=
EXTT14=
EXTT15=
EXTT16=
EXTT17=
EXTT18=
EXTT19=
PLAYORDER=
